<svg viewBox="0 0 500 400" fill="none" xmlns="http://www.w3.org/2000/svg">
  <!-- Uttar Pradesh Premium Minimal Outline -->
  <path d="M 60,180 C 80,140 100,100 130,90 C 160,80 180,60 210,60 C 240,60 260,80 290,90 C 320,100 350,90 380,100 C 410,110 430,130 450,150 C 470,170 480,200 460,230 C 440,260 410,280 390,300 C 370,320 340,330 320,330 C 300,330 280,310 260,310 C 240,310 220,330 200,330 C 180,330 160,310 140,300 C 120,290 100,290 80,270 C 60,250 50,210 60,180 Z" stroke="#C5A880" stroke-width="1.5" fill="none" opacity="0.7" />
</svg>
